<svg class="svg-icon" style="width: 1em; height: 1em;vertical-align: middle;fill: currentColor;overflow: hidden;" viewBox="0 0 1024 1024" version="1.1" xmlns="http://www.w3.org/2000/svg"><path d="M859.03172 632.520868c-54.704508 0-104.280467 27.352254-133.342238 68.380635l-54.704507-10.257096c-1.709516-8.547579-8.547579-32.480801-8.547579-32.480801 17.095159 5.128548 51.285476-34.190317 51.285475-34.190317 6.838063 5.128548 114.537563-17.095159 114.537563-17.095159 52.994992-52.994992 39.318865-102.570952 39.318865-102.570951C872.707846 497.469115 975.278798 478.664441 975.278798 478.664441c18.804674-5.128548 13.676127-15.385643 13.676127-15.385643-39.318865-10.257095-317.96995 20.51419-317.96995 20.51419-13.676127 0-5.128548-8.547579-5.128548-8.547579 20.51419-1.709516 162.404007-70.09015 162.404007-70.09015 76.928214-44.447412-10.257095-157.275459-10.257095-157.275459-1.709516-44.447412-10.257095-66.671119-10.257095-66.671119-10.257095-17.095159-97.442404-58.123539-97.442404-58.123539-10.257095-3.419032 1.709516-15.385643 1.709516-15.385643 6.838063-6.838063 6.838063-29.06177 6.838063-29.061769-18.804674-32.480801-37.609349 18.804674-37.609349 18.804674-17.095159 3.419032-10.257095-6.838063-10.257095-6.838063-70.09015-116.247078-158.984975-11.966611-158.984975-11.966611-22.223706 17.095159-34.190317 88.894825-34.190317 88.894824 0-8.547579 35.899833-13.676127 35.899833-13.676127 8.547579-5.128548 30.771285 15.385643 30.771285 15.385643-6.838063 8.547579 5.128548 25.642738 5.128548 25.642738-23.933222 23.933222 18.804674 46.156928 18.804674 46.156928-52.994992 8.547579-92.313856 35.899833-92.313856 35.899833-11.966611 8.547579-44.447412 6.838063-44.447412 6.838064-25.642738-1.709516-47.866444 41.028381-47.866444 41.02838 10.257095 1.709516-1.709516 15.385643-1.709516 15.385643-47.866444-1.709516-11.966611 22.223706-11.966611 22.223706-41.028381 5.128548-80.347245 109.409015-80.347246 109.409015C168.387312 446.183639 91.459098 512.854758 91.459098 512.854758c-15.385643 15.385643 41.028381 8.547579 41.028381 8.547579 80.347245-39.318865 150.437396-1.709516 150.437396-1.709516L223.09182 625.682805c-17.095159-6.838063-37.609349-10.257095-58.12354-10.257095C74.36394 615.42571 0.854758 688.934891 0.854758 779.539232s73.509182 164.113523 164.113522 164.113523 164.113523-73.509182 164.113523-164.113523c0-47.866444-20.51419-92.313856-54.704508-123.085142l58.12354-114.537562c34.190317-1.709516 54.704508 182.918197 54.704507 182.918197 13.676127 37.609349 41.028381-8.547579 41.028381-8.54758 8.547579 1.709516 22.223706-6.838063 22.223706-6.838063 23.933222 64.961603 162.404007 49.57596 162.404007 49.57596-10.257095 3.419032-18.804674 27.352254-18.804675 27.352253-3.419032 10.257095 8.547579 5.128548 8.54758 5.128548 10.257095-25.642738 61.542571-30.771285 61.542571-30.771285l27.352253 11.966611c-1.709516 6.838063-1.709516 13.676127-1.709516 22.223706 0 90.604341 73.509182 164.113523 164.113523 164.113522s164.113523-73.509182 164.113522-164.113522c5.128548-87.185309-68.380634-162.404007-158.984974-162.404007zM575.252087 434.217028s-8.547579 30.771285-3.419032 37.609349c0 0-70.09015-30.771285-80.347245-23.933222l-15.385643-8.547579s-11.966611-35.899833-41.028381-15.385643c0 0-30.771285 11.966611-22.223706 23.933222 0 0-18.804674-10.257095-11.966611-17.095158 0 0 11.966611-44.447412 39.318865-44.447413 0 0 35.899833 1.709516 37.609349-25.642738 0 0 6.838063-34.190317 30.771285-41.02838h3.419032c25.642738-3.419032 64.961603-17.095159 82.056761-30.771286 18.804674-11.966611 56.414023-25.642738 61.542571-32.480801 0 0 56.414023 46.156928 75.218698 46.156928 0 0 20.51419 22.223706 8.547579 30.771286-1.709516 1.709516-157.275459 51.285476-164.113522 100.861435z"  /></svg>